HIERARCHY
ROOT pelvis
{
	OFFSET 0.000000 0.634141 -0.000000
	CHANNELS 6 Xposition Yposition Zposition Xrotation Yrotation Zrotation
	JOINT pelvis.R
	{
		OFFSET 0.000000 0.000000 0.000000
		CHANNELS 6 Xposition Yposition Zposition Xrotation Yrotation Zrotation
		JOINT thigh.R
		{
			OFFSET -0.090495 0.000000 0.000000
			CHANNELS 3 Xrotation Yrotation Zrotation
			JOINT shin.R
			{
				OFFSET 0.000000 -0.321631 0.005614
				CHANNELS 6 Xposition Yposition Zposition Xrotation Yrotation Zrotation
				JOINT foot.R
				{
					OFFSET 0.000000 -0.257147 -0.004489
					CHANNELS 3 Xrotation Yrotation Zrotation
					End Site
					{
						OFFSET 0.000000 -0.053189 0.125305
					}
				}
				JOINT heel.02.R
				{
					OFFSET 0.000000 -0.257147 -0.004489
					CHANNELS 3 Xrotation Yrotation Zrotation
					End Site
					{
						OFFSET 0.000000 -0.045053 -0.012072
					}
				}
			}
		}
	}
	JOINT pelvis.L
	{
		OFFSET 0.000000 0.000000 0.000000
		CHANNELS 6 Xposition Yposition Zposition Xrotation Yrotation Zrotation
		JOINT thigh.L
		{
			OFFSET 0.090495 0.000000 0.000000
			CHANNELS 3 Xrotation Yrotation Zrotation
			JOINT shin.L
			{
				OFFSET 0.000000 -0.328836 0.005740
				CHANNELS 6 Xposition Yposition Zposition Xrotation Yrotation Zrotation
				JOINT foot.L
				{
					OFFSET 0.000000 -0.250380 -0.004370
					CHANNELS 3 Xrotation Yrotation Zrotation
					End Site
					{
						OFFSET 0.000000 -0.056923 0.134103
					}
				}
				JOINT heel.02.L
				{
					OFFSET 0.000000 -0.250380 -0.004370
					CHANNELS 3 Xrotation Yrotation Zrotation
					End Site
					{
						OFFSET 0.000000 -0.047350 -0.012687
					}
				}
			}
		}
	}
	JOINT spine
	{
		OFFSET 0.000000 0.000000 0.000000
		CHANNELS 6 Xposition Yposition Zposition Xrotation Yrotation Zrotation
		JOINT spine.001
		{
			OFFSET 0.000000 0.248358 -0.000000
			CHANNELS 3 Xrotation Yrotation Zrotation
			JOINT neck
			{
				OFFSET 0.000000 0.248358 -0.000000
				CHANNELS 6 Xposition Yposition Zposition Xrotation Yrotation Zrotation
				JOINT face
				{
					OFFSET 0.000000 0.184942 -0.000000
					CHANNELS 6 Xposition Yposition Zposition Xrotation Yrotation Zrotation
					End Site
					{
						OFFSET 0.000000 -0.034202 0.093969
					}
				}
			}
			JOINT shoulder.R
			{
				OFFSET 0.000000 0.248358 -0.000000
				CHANNELS 6 Xposition Yposition Zposition Xrotation Yrotation Zrotation
				JOINT upper_arm.R
				{
					OFFSET -0.161783 0.000000 0.000000
					CHANNELS 6 Xposition Yposition Zposition Xrotation Yrotation Zrotation
					JOINT forearm.R
					{
						OFFSET -0.245184 0.000000 0.000000
						CHANNELS 6 Xposition Yposition Zposition Xrotation Yrotation Zrotation
						JOINT hand.R
						{
							OFFSET -0.213240 0.000000 0.003722
							CHANNELS 6 Xposition Yposition Zposition Xrotation Yrotation Zrotation
							JOINT thumb.carpal.R
							{
								OFFSET 0.000000 0.000000 0.000000
								CHANNELS 6 Xposition Yposition Zposition Xrotation Yrotation Zrotation
								JOINT thumb.01.R
								{
									OFFSET -0.022295 0.000000 0.022295
									CHANNELS 3 Xrotation Yrotation Zrotation
									JOINT thumb.02.R
									{
										OFFSET -0.022015 0.000000 0.022015
										CHANNELS 6 Xposition Yposition Zposition Xrotation Yrotation Zrotation
										JOINT thumb.03.R
										{
											OFFSET -0.017573 0.000000 0.017573
											CHANNELS 6 Xposition Yposition Zposition Xrotation Yrotation Zrotation
											End Site
											{
												OFFSET -0.013535 0.000000 0.013535
											}
										}
									}
								}
							}
							JOINT palm.01.R
							{
								OFFSET 0.000000 0.000000 0.000000
								CHANNELS 6 Xposition Yposition Zposition Xrotation Yrotation Zrotation
								JOINT f_index.01.R
								{
									OFFSET -0.073271 0.000000 0.022401
									CHANNELS 3 Xrotation Yrotation Zrotation
									JOINT f_index.02.R
									{
										OFFSET -0.035205 0.000000 0.000000
										CHANNELS 6 Xposition Yposition Zposition Xrotation Yrotation Zrotation
										JOINT f_index.03.R
										{
											OFFSET -0.019627 0.000000 0.000000
											CHANNELS 6 Xposition Yposition Zposition Xrotation Yrotation Zrotation
											End Site
											{
												OFFSET -0.013495 0.000000 0.000000
											}
										}
									}
								}
							}
							JOINT palm.02.R
							{
								OFFSET 0.000000 0.000000 0.000000
								CHANNELS 6 Xposition Yposition Zposition Xrotation Yrotation Zrotation
								JOINT f_middle.01.R
								{
									OFFSET -0.071527 0.000000 0.006887
									CHANNELS 3 Xrotation Yrotation Zrotation
									JOINT f_middle.02.R
									{
										OFFSET -0.035662 0.000000 0.000000
										CHANNELS 6 Xposition Yposition Zposition Xrotation Yrotation Zrotation
										JOINT f_middle.03.R
										{
											OFFSET -0.020080 0.000000 0.000000
											CHANNELS 6 Xposition Yposition Zposition Xrotation Yrotation Zrotation
											End Site
											{
												OFFSET -0.014773 0.000000 0.000000
											}
										}
									}
								}
							}
							JOINT palm.03.R
							{
								OFFSET 0.000000 0.000000 0.000000
								CHANNELS 6 Xposition Yposition Zposition Xrotation Yrotation Zrotation
								JOINT f_ring.01.R
								{
									OFFSET -0.066931 0.000000 -0.008574
									CHANNELS 3 Xrotation Yrotation Zrotation
									JOINT f_ring.02.R
									{
										OFFSET -0.032107 0.000000 0.000000
										CHANNELS 6 Xposition Yposition Zposition Xrotation Yrotation Zrotation
										JOINT f_ring.03.R
										{
											OFFSET -0.018478 0.000000 0.000000
											CHANNELS 6 Xposition Yposition Zposition Xrotation Yrotation Zrotation
											End Site
											{
												OFFSET -0.014043 0.000000 0.000000
											}
										}
									}
								}
							}
							JOINT palm.04.R
							{
								OFFSET 0.000000 0.000000 0.000000
								CHANNELS 6 Xposition Yposition Zposition Xrotation Yrotation Zrotation
								JOINT f_pinky.01.R
								{
									OFFSET -0.059646 0.000000 -0.020538
									CHANNELS 3 Xrotation Yrotation Zrotation
									JOINT f_pinky.02.R
									{
										OFFSET -0.025597 0.000000 0.000000
										CHANNELS 6 Xposition Yposition Zposition Xrotation Yrotation Zrotation
										JOINT f_pinky.03.R
										{
											OFFSET -0.014497 0.000000 0.000000
											CHANNELS 6 Xposition Yposition Zposition Xrotation Yrotation Zrotation
											End Site
											{
												OFFSET -0.011947 0.000000 0.000000
											}
										}
									}
								}
							}
						}
					}
				}
			}
			JOINT shoulder.L
			{
				OFFSET 0.000000 0.248358 -0.000000
				CHANNELS 6 Xposition Yposition Zposition Xrotation Yrotation Zrotation
				JOINT upper_arm.L
				{
					OFFSET 0.161783 0.000000 0.000000
					CHANNELS 6 Xposition Yposition Zposition Xrotation Yrotation Zrotation
					JOINT forearm.L
					{
						OFFSET 0.268645 0.000000 0.000000
						CHANNELS 6 Xposition Yposition Zposition Xrotation Yrotation Zrotation
						JOINT hand.L
						{
							OFFSET 0.230711 0.000000 0.004027
							CHANNELS 6 Xposition Yposition Zposition Xrotation Yrotation Zrotation
							JOINT thumb.carpal.L
							{
								OFFSET 0.000000 0.000000 0.000000
								CHANNELS 6 Xposition Yposition Zposition Xrotation Yrotation Zrotation
								JOINT thumb.01.L
								{
									OFFSET 0.025545 0.000000 0.025545
									CHANNELS 3 Xrotation Yrotation Zrotation
									JOINT thumb.02.L
									{
										OFFSET 0.021155 0.000000 0.021155
										CHANNELS 6 Xposition Yposition Zposition Xrotation Yrotation Zrotation
										JOINT thumb.03.L
										{
											OFFSET 0.017091 0.000000 0.017091
											CHANNELS 6 Xposition Yposition Zposition Xrotation Yrotation Zrotation
											End Site
											{
												OFFSET 0.013893 0.000000 0.013893
											}
										}
									}
								}
							}
							JOINT palm.01.L
							{
								OFFSET 0.000000 0.000000 0.000000
								CHANNELS 6 Xposition Yposition Zposition Xrotation Yrotation Zrotation
								JOINT f_index.01.L
								{
									OFFSET 0.074469 0.000000 0.022767
									CHANNELS 3 Xrotation Yrotation Zrotation
									JOINT f_index.02.L
									{
										OFFSET 0.031404 0.000000 0.000000
										CHANNELS 6 Xposition Yposition Zposition Xrotation Yrotation Zrotation
										JOINT f_index.03.L
										{
											OFFSET 0.017813 0.000000 0.000000
											CHANNELS 6 Xposition Yposition Zposition Xrotation Yrotation Zrotation
											End Site
											{
												OFFSET 0.012663 0.000000 0.000000
											}
										}
									}
								}
							}
							JOINT palm.02.L
							{
								OFFSET 0.000000 0.000000 0.000000
								CHANNELS 6 Xposition Yposition Zposition Xrotation Yrotation Zrotation
								JOINT f_middle.01.L
								{
									OFFSET 0.072749 0.000000 0.007005
									CHANNELS 3 Xrotation Yrotation Zrotation
									JOINT f_middle.02.L
									{
										OFFSET 0.033894 0.000000 0.000000
										CHANNELS 6 Xposition Yposition Zposition Xrotation Yrotation Zrotation
										JOINT f_middle.03.L
										{
											OFFSET 0.018311 0.000000 0.000000
											CHANNELS 6 Xposition Yposition Zposition Xrotation Yrotation Zrotation
											End Site
											{
												OFFSET 0.012434 0.000000 0.000000
											}
										}
									}
								}
							}
							JOINT palm.03.L
							{
								OFFSET 0.000000 0.000000 0.000000
								CHANNELS 6 Xposition Yposition Zposition Xrotation Yrotation Zrotation
								JOINT f_ring.01.L
								{
									OFFSET 0.068280 0.000000 -0.008747
									CHANNELS 3 Xrotation Yrotation Zrotation
									JOINT f_ring.02.L
									{
										OFFSET 0.031622 0.000000 0.000000
										CHANNELS 6 Xposition Yposition Zposition Xrotation Yrotation Zrotation
										JOINT f_ring.03.L
										{
											OFFSET 0.017377 0.000000 0.000000
											CHANNELS 6 Xposition Yposition Zposition Xrotation Yrotation Zrotation
											End Site
											{
												OFFSET 0.011992 0.000000 0.000000
											}
										}
									}
								}
							}
							JOINT palm.04.L
							{
								OFFSET 0.000000 0.000000 0.000000
								CHANNELS 6 Xposition Yposition Zposition Xrotation Yrotation Zrotation
								JOINT f_pinky.01.L
								{
									OFFSET 0.062428 0.000000 -0.021496
									CHANNELS 3 Xrotation Yrotation Zrotation
									JOINT f_pinky.02.L
									{
										OFFSET 0.025516 0.000000 0.000000
										CHANNELS 6 Xposition Yposition Zposition Xrotation Yrotation Zrotation
										JOINT f_pinky.03.L
										{
											OFFSET 0.014347 0.000000 0.000000
											CHANNELS 6 Xposition Yposition Zposition Xrotation Yrotation Zrotation
											End Site
											{
												OFFSET 0.010136 0.000000 0.000000
											}
										}
									}
								}
							}
						}
					}
				}
			}
		}
	}
}
MOTION
Frames: 4
Frame Time: 0.041667
0.117637 0.650647 -0.013302 0.000000 -1.556936 -5.123990 0.000000 0.000000 -0.000000 -0.000000 0.000000 -0.000000 -8.455789 -0.173011 3.066803 0.000000 -0.321631 0.005614 9.344510 0.540265 8.402785 13.990539 -29.693622 -8.696315 5.492285 -6.681781 30.088298 0.000000 0.000000 -0.000000 -0.000000 0.000132 -0.000076 0.929571 0.097616 3.815970 -0.000000 -0.328836 0.005740 -4.319853 0.290700 -5.261973 26.629835 -6.079396 -1.038484 23.126134 0.076737 -1.277670 0.000000 0.000000 -0.000000 -3.339701 0.034834 -1.194854 0.000091 -4.732529 -0.000000 0.000000 0.248358 -0.000000 21.893869 -20.237536 11.742857 -0.000000 0.184942 -0.000000 -7.433342 -0.000005 0.000003 0.000000 0.248358 -0.000000 -0.000003 0.000000 3.459205 -0.161783 -0.000000 -0.000000 12.988863 -15.658263 79.242639 -0.245184 0.000000 -0.000000 -2.418526 26.859953 10.850679 -0.213240 0.000000 0.003722 83.172675 11.954358 4.709606 -0.000000 0.000000 -0.000000 0.000002 -10.899051 -0.000001 -6.657697 -30.073678 -6.657717 -0.022015 -0.000000 0.022015 9.301679 -6.658305 9.301668 -0.017573 0.000000 0.017573 -2.731518 0.186891 -2.731519 -0.000000 -0.000000 0.000000 -4.549280 -29.468069 -8.630647 -8.179485 31.403031 28.540821 -0.035205 0.000000 0.000000 -3.772870 19.179946 22.061579 -0.019627 0.000000 0.000000 -1.498046 8.195748 20.683281 -0.000000 0.000000 0.000000 -0.768029 -24.021997 -2.535696 -5.045781 30.360833 18.447655 -0.035662 -0.000000 0.000000 -3.528931 14.611368 27.022276 -0.020080 -0.000000 0.000000 -1.709015 12.191796 15.900841 -0.000000 -0.000000 -0.000000 -0.058772 -12.653270 3.361704 -1.548178 20.774348 8.431279 -0.032107 -0.000000 -0.000000 -3.041234 13.044566 26.143514 -0.018478 -0.000000 0.000000 -0.929022 11.039425 9.591371 -0.000000 0.000000 -0.000000 -2.635369 0.458158 7.566563 0.053531 4.174363 -1.468872 -0.025597 -0.000000 -0.000000 -2.069848 12.828476 18.257628 -0.014497 0.000000 0.000000 -1.372548 13.425825 11.621812 0.000000 0.248358 -0.000000 -0.000001 -0.000024 3.459247 0.161783 0.000000 -0.000000 2.744223 3.755804 -72.299253 0.268645 -0.000000 -0.000000 -4.934536 -23.654893 -25.213601 0.230711 0.000000 0.004027 76.169149 -8.747633 -14.030206 -0.000000 -0.000000 -0.000000 -0.000002 -5.317439 -0.000002 1.025204 39.958635 -1.025192 0.021155 -0.000000 0.021155 6.683957 22.673276 -6.683950 0.017091 -0.000000 0.017091 -11.684039 -19.191892 11.684015 0.000000 0.000000 -0.000000 -4.776439 9.584588 12.532221 -0.493228 -3.671575 -15.297218 0.031404 0.000000 0.000000 -1.526168 -7.682774 -22.439311 0.017813 -0.000000 0.000000 -0.396339 -2.585992 -17.424265 -0.000000 -0.000000 0.000000 -2.233454 12.326547 11.014595 -1.017554 -6.516383 -17.732090 0.033894 -0.000000 0.000000 -3.250706 -17.586067 -20.789718 0.018311 -0.000000 -0.000000 -1.263803 -6.748883 -21.189711 -0.000000 -0.000000 -0.000000 0.056937 13.241923 4.660726 -0.646737 -7.886730 -9.361226 0.031622 -0.000000 -0.000000 -3.055530 -21.842347 -15.739650 0.017377 -0.000000 -0.000000 -1.712678 -9.347374 -20.722215 -0.000000 0.000000 -0.000000 -1.015710 15.396180 -4.627809 -0.166015 -2.336592 -8.126924 0.025516 0.000000 -0.000000 -0.864352 -27.939463 -3.473585 0.014347 -0.000000 -0.000000 -2.647122 -13.627554 -21.887922 
0.117372 0.653193 -0.018751 -0.000000 -2.075915 -5.830924 0.000000 0.000000 0.000000 0.000000 -0.000000 0.000000 -8.910583 -0.233758 3.869983 0.000000 -0.321631 0.005614 7.674991 0.386106 7.778043 16.461541 -29.570723 -7.960873 11.662612 -5.145433 31.112932 0.000000 0.000000 0.000000 0.000000 0.000113 0.000038 0.998691 0.119203 4.551884 -0.000000 -0.328836 0.005740 -5.631751 0.351744 -5.270002 28.467313 -5.857587 -0.904047 26.988811 0.052864 -2.011133 0.000000 0.000000 -0.000000 -2.513779 0.023822 -1.085754 0.000055 -4.159379 0.000004 0.000000 0.248358 -0.000000 21.015355 -20.467032 10.872729 -0.000000 0.184942 -0.000000 -7.169926 -0.000007 0.000000 0.000000 0.248358 -0.000000 -0.000004 0.000001 2.847818 -0.161783 -0.000000 -0.000000 12.546305 -14.884215 80.164216 -0.245184 -0.000000 -0.000000 -2.374266 27.081734 10.555754 -0.213240 -0.000000 0.003722 93.689479 13.562283 4.558568 -0.000000 0.000000 -0.000000 0.000001 -6.119171 -0.000002 -6.819318 -33.694355 -6.819335 -0.022015 -0.000000 0.022015 4.810420 -7.440861 4.810415 -0.017573 0.000000 0.017573 -1.967823 0.478337 -1.967823 -0.000000 0.000000 0.000000 -2.794894 -29.380711 -5.313211 -6.608199 39.011674 18.512891 -0.035205 0.000000 0.000000 -0.715967 24.458913 3.302368 -0.019627 0.000000 0.000000 -1.356182 13.474665 11.442415 0.000000 -0.000000 0.000000 -0.764424 -24.096706 -2.518405 -5.589399 35.770647 17.203594 -0.035662 -0.000000 -0.000000 -0.828556 21.569297 4.347746 -0.020080 0.000000 -0.000000 -0.781602 16.754661 5.303828 -0.000000 -0.000000 -0.000000 -0.020092 -11.977354 0.854579 -1.522312 24.546042 6.989520 -0.032107 -0.000000 0.000000 -0.848796 19.708943 4.883425 -0.018478 0.000000 0.000000 -0.050336 13.653283 0.420475 -0.000000 0.000000 -0.000000 -1.191874 2.282312 3.293819 0.050331 6.217300 -0.926744 -0.025597 0.000000 -0.000000 -1.010353 17.585946 6.524882 -0.014497 0.000000 -0.000000 0.140846 14.421314 -1.113219 0.000000 0.248358 -0.000000 -0.000005 0.000064 2.847820 0.161783 -0.000000 0.000000 1.690983 2.333364 -71.857996 0.268645 0.000000 -0.000000 -4.409139 -22.743420 -23.594581 0.230711 0.000000 0.004027 83.722335 -11.023727 -10.575915 0.000000 -0.000000 -0.000000 -0.000000 -7.508895 -0.000001 5.918272 41.165376 -5.918261 0.021155 -0.000000 0.021155 0.534427 19.258494 -0.534420 0.017091 0.000000 0.017091 -11.448877 -10.836234 11.448854 0.000000 0.000000 -0.000000 -2.945828 12.227803 7.360592 -0.938558 -6.323240 -16.869007 0.031404 0.000000 -0.000000 -2.058587 -12.207137 -19.075264 0.017813 0.000000 -0.000000 -0.753998 -7.239237 -11.876735 0.000000 -0.000000 -0.000000 -0.572320 14.637630 2.577830 -1.491746 -9.909801 -17.080063 0.033894 0.000000 -0.000000 -2.955190 -20.289687 -16.406196 0.018311 -0.000000 0.000000 -1.102850 -8.768225 -14.310507 -0.000000 -0.000000 -0.000000 -0.024845 14.163650 -6.313796 -0.903437 -9.140752 -11.265565 0.031622 0.000000 -0.000000 -1.504710 -23.879009 -7.107320 0.017377 -0.000000 0.000000 -0.888069 -9.955212 -10.169978 0.000000 0.000000 -0.000000 -3.722670 14.872681 -16.519449 -0.304250 -2.977661 -11.665565 0.025516 -0.000000 0.000000 1.468283 -27.799828 5.928102 0.014347 0.000000 0.000000 -1.549944 -14.494169 -12.143579 
0.117164 0.656912 -0.028337 0.000000 -2.024431 -6.588322 0.000000 0.000000 0.000000 -0.000000 0.000000 0.000000 -9.398608 -0.296926 4.589955 0.000000 -0.321631 0.005614 5.330437 0.206634 7.098605 29.867727 -36.359365 -5.329109 15.618225 -4.145516 32.012021 0.000000 0.000000 0.000000 -0.000000 0.000151 0.000001 0.795648 0.134435 5.504729 -0.000000 -0.328836 0.005740 -7.386441 0.456978 -5.562083 31.614029 -6.475449 -0.818090 28.724528 0.021327 -1.915768 0.000000 0.000000 -0.000000 -1.009663 0.007985 -0.906285 0.000070 -4.667476 0.000002 -0.000000 0.248358 -0.000000 19.423449 -23.011423 10.261114 -0.000000 0.184942 -0.000000 -5.720105 0.000007 0.000001 -0.000000 0.248358 -0.000000 -0.000001 0.000001 1.961739 -0.161783 0.000000 0.000000 11.990779 -14.141338 80.509701 -0.245184 -0.000000 -0.000000 -2.593515 27.126725 11.503219 -0.213240 0.000000 0.003722 87.285918 13.037809 6.135824 0.000000 0.000000 -0.000000 -0.000001 -9.317476 -0.000003 -5.906958 -28.794828 -5.906954 -0.022015 -0.000000 0.022015 9.165830 -8.150493 9.165818 -0.017573 0.000000 0.017573 -0.490389 -2.432300 -0.490391 0.000000 -0.000000 0.000000 -4.435952 -28.544887 -8.524163 -7.363762 36.216969 22.264740 -0.035205 0.000000 0.000000 -1.173192 26.834580 4.915063 -0.019627 0.000000 0.000000 -1.391411 12.139787 13.029049 0.000000 0.000000 0.000000 -1.489909 -23.283956 -5.023033 -5.842896 33.932226 18.992519 -0.035662 -0.000000 0.000000 -0.800737 22.251216 4.070094 -0.020080 -0.000000 0.000000 -1.104750 13.940893 9.017639 0.000000 0.000000 -0.000000 0.005587 -11.398234 -0.194858 -1.572729 23.645949 7.502929 -0.032107 0.000000 -0.000000 -0.879757 19.405302 5.141987 -0.018478 -0.000000 0.000000 -0.540149 12.945538 4.758224 0.000000 0.000000 -0.000000 -1.439958 2.165896 3.988704 0.038062 5.885012 -0.740440 -0.025597 0.000000 0.000000 -0.598400 18.633058 3.646364 -0.014497 0.000000 0.000000 -0.310341 14.875215 2.376928 -0.000000 0.248358 -0.000000 0.000000 -0.000062 1.961736 0.161783 0.000000 -0.000000 0.378629 0.528591 -71.227487 0.268645 0.000000 -0.000000 -3.645996 -21.256869 -21.116121 0.230711 -0.000000 0.004027 77.501590 -11.175711 -8.815402 0.000000 -0.000000 0.000000 -0.000002 -4.177045 -0.000002 -9.650968 36.133958 9.650974 0.021155 -0.000000 0.021155 8.425230 20.677303 -8.425222 0.017091 0.000000 0.017091 -5.377471 -9.070532 5.377461 0.000000 0.000000 0.000000 -3.983629 12.301163 9.930582 -0.658260 -6.233335 -12.044860 0.031404 -0.000000 0.000000 -1.348753 -11.981465 -12.799630 0.017813 -0.000000 0.000000 -0.454212 -8.822882 -5.882512 0.000000 -0.000000 0.000000 -1.432734 15.119756 6.330183 -1.085344 -10.150062 -12.175519 0.033894 0.000000 0.000000 -1.967531 -21.624285 -10.275730 0.018311 0.000000 -0.000000 -1.141617 -10.876164 -11.948864 0.000000 -0.000000 0.000000 0.004265 15.176516 -0.819016 -0.841677 -10.887168 -8.815023 0.031622 0.000000 -0.000000 0.632656 -25.039914 2.848465 0.017377 0.000000 -0.000000 -0.902457 -11.436967 -8.993716 0.000000 0.000000 0.000000 -2.148021 15.830840 -9.938525 -0.322400 -6.928547 -5.321866 0.025516 0.000000 0.000000 3.842485 -29.179763 14.686787 0.014347 -0.000000 0.000000 -1.680410 -16.368612 -11.644478 
0.116775 0.659465 -0.035053 -0.000000 -0.717989 -6.895217 0.000000 -0.000000 0.000000 0.000000 -0.000000 -0.000000 -8.513818 -0.267338 4.695320 -0.000000 -0.321631 0.005614 2.288451 0.017437 6.917817 30.210606 -36.530082 -5.240723 13.977388 -4.772701 32.988154 0.000000 -0.000000 0.000000 -0.000000 0.000170 -0.000001 0.829692 0.153482 6.208151 -0.000000 -0.328836 0.005740 -8.219446 0.565738 -6.320511 34.269047 -7.603806 -0.782281 26.480549 0.021028 -0.684459 0.000000 -0.000000 0.000000 -0.025362 0.000248 -1.126451 0.000048 -5.962838 0.000003 0.000000 0.248358 -0.000000 18.278098 -24.261657 9.431650 -0.000000 0.184942 -0.000000 -5.028672 0.000004 -0.000001 0.000000 0.248358 -0.000000 -0.000000 -0.000000 1.417933 -0.161783 -0.000000 0.000000 11.106527 -12.935647 81.235121 -0.245184 -0.000000 0.000000 -2.301548 26.445451 10.509721 -0.213240 -0.000000 0.003722 81.444221 12.581537 6.145134 -0.000000 -0.000000 -0.000000 0.000002 -9.447167 -0.000003 -2.137633 -28.980161 -2.137636 -0.022015 0.000000 0.022015 4.235889 -7.840355 4.235882 -0.017573 0.000000 0.017573 -0.095828 -0.627266 -0.095826 0.000000 0.000000 -0.000000 -3.992255 -27.876939 -7.745504 -7.627803 36.528982 22.839277 -0.035205 0.000000 0.000000 -3.524238 22.442169 17.629545 -0.019627 0.000000 0.000000 -1.268023 7.853653 18.315712 0.000000 0.000000 0.000000 -0.880255 -23.253014 -2.971480 -6.947004 35.781694 21.297836 -0.035662 0.000000 -0.000000 -2.170879 18.075903 13.585478 -0.020080 0.000000 -0.000000 -0.885907 11.113816 9.086782 -0.000000 -0.000000 -0.000000 -0.052516 -12.062001 2.307106 -2.154140 26.988545 8.959379 -0.032107 -0.000000 0.000000 -1.751688 15.576730 12.754980 -0.018478 -0.000000 0.000000 -0.733331 10.354224 8.080498 0.000000 0.000000 -0.000000 -2.157817 1.260858 6.090691 -0.172233 9.459251 2.081513 -0.025597 -0.000000 -0.000000 -1.051104 15.585030 7.669391 -0.014497 0.000000 -0.000000 -0.542865 13.226851 4.679673 0.000000 0.248358 -0.000000 0.000001 -0.000085 1.417933 0.161783 -0.000000 -0.000000 -1.071603 -1.499607 -71.096791 0.268645 0.000000 -0.000000 -2.800324 -18.491443 -19.040771 0.230711 -0.000000 0.004027 69.666161 -10.355248 -8.896800 0.000000 -0.000000 0.000000 -0.000001 -2.279646 -0.000001 -12.198504 31.935574 12.198510 0.021155 -0.000000 0.021155 8.199383 22.114086 -8.199373 0.017091 -0.000000 0.017091 2.851796 -2.973210 -2.851791 0.000000 0.000000 -0.000000 -4.938634 11.816253 12.409392 -0.670679 -7.873782 -9.722113 0.031404 0.000000 -0.000000 -1.877176 -9.420517 -22.491277 0.017813 -0.000000 0.000000 -0.754562 -7.215129 -11.925154 0.000000 -0.000000 0.000000 -1.918038 15.493789 8.349851 -0.795634 -12.957786 -6.997526 0.033894 -0.000000 0.000000 -2.745743 -20.344784 -15.215433 0.018311 -0.000000 -0.000000 -1.616673 -9.781771 -18.725775 0.000000 -0.000000 0.000000 -0.011381 16.395763 0.699924 -0.244117 -13.763569 -2.022481 0.031622 0.000000 -0.000000 -0.753418 -24.630417 -3.450094 0.017377 -0.000000 -0.000000 -1.682631 -10.704035 -17.817204 0.000000 0.000000 -0.000000 -1.636455 17.107076 -7.989309 0.262290 -11.016619 2.719317 0.025516 0.000000 0.000000 1.746399 -27.647861 7.088732 0.014347 -0.000000 -0.000000 -2.014664 -14.497686 -15.740968 
